# xmcd
#
# Track frame offsets:
#   150
#   19262
#   30504
#   48581
#   67536
#   86025
#   107962
#   125970
#   145046
#   160343
#   183132
#   198402
#   212239
#   229458
#   244304
#   259281
#   269069
#   288685
#   306033
#   321856
#
# Disc length: 4522 seconds
#
# Revision: 0
# Processed by: cddbd v1.5.2PL0 Copyright (c) Steve Scherf et al.
# Submitted via: uFREEDB ActiveX Control 1.5
#
DISCID=3711a814
DTITLE=milionario and jose rico - Lembranças
DYEAR=2000
DGENRE=Country
TTITLE0=Decida
TTITLE1=Sentimental Demais
TTITLE2=Canarinho do Peito Amarelo
TTITLE3=A Carta
TTITLE4=Por Que Chora a Tarde
TTITLE5=Lembranças
TTITLE6=Fim de Noite
TTITLE7=Levando a Vida
TTITLE8=Você Agora Vai Decidir
TTITLE9=Gita
TTITLE10=Jogo do Amor
TTITLE11=Velha Canoa
TTITLE12=Agenda Rabiscada
TTITLE13=Livro da Vida
TTITLE14=Um Beijo e Um Adeus
TTITLE15=Estrada da Vida
TTITLE16=Sonhei Com Você
TTITLE17=Praia Deserta
TTITLE18=Aguenta Peão
TTITLE19=Pra Sempre
EXTD=AA01022000
EXTT0=
EXTT1=
EXTT2=
EXTT3=
EXTT4=
EXTT5=
EXTT6=
EXTT7=
EXTT8=
EXTT9=
EXTT10=
EXTT11=
EXTT12=
EXTT13=
EXTT14=
EXTT15=
EXTT16=
EXTT17=
EXTT18=
EXTT19=
PLAYORDER=
